{"title":"Ein fliehendes Pferd (1985) DE ... Xvid-mp3 76m36s.avi","uid":5824894,"size":735645576,"categoryP":"video","categoryS":"movies","magnet":"?xt=urn:btih:e6a3d04c9982fed68a4ad4dbba9bf0afb651e645&amp;dn=Ein+fliehendes+Pferd+%281985%29+DE+...+Xvid-mp3+76m36s.avi&amp;tr=udp%3A%2F%2Ftracker.openbittorrent.com%3A80&amp;tr=udp%3A%2F%2Fopen.demonii.com%3A1337&amp;tr=udp%3A%2F%2Ftracker.coppersurfer.tk%3A6969&amp;tr=udp%3A%2F%2Fexodus.desync.com%3A6969","seeders":0,"leechers":0,"uploader":null,"files":1,"time":1284220115,"description":"General\nComplete name                    : Ein fliehendes Pferd (1985) Peter.Beauvais Glowna Marschall Dietmar_Mues Zech. Novelle Martin Walser VHSrip Xvid-mp3 76m36s.avi\nFormat                           : AVI\nFormat/Info                      : Audio Video Interleave\nFile size                        : 702 MiB\nDuration                         : 1h 16mn\nOverall bit rate                 : 1 280 Kbps\n\nVideo\nFormat                           : MPEG-4 Visual\nFormat profile                   : Streaming Video@L1\nFormat settings, BVOP            : Yes\nFormat settings, QPel            : No\nFormat settings, GMC             : No warppoints\nFormat settings, Matrix          : Default\nCodec ID                         : XVID\nCodec ID/Hint                    : XviD\nDuration                         : 1h 16mn\nBit rate                         : 1 139 Kbps\nWidth                            : 640 pixels\nHeight                           : 480 pixels\nDisplay aspect ratio             : 4/3\nFrame rate                       : 25.000 fps\nResolution                       : 24 bits\nColorimetry                      : 4:2:0\nScan type                        : Progressive\nBits/(Pixel*Frame)               : 0.148\nStream size                      : 624 MiB (89%)\nWriting library                  : XviD 1.2.1 (UTC 2008-12-04)\n\nAudio\nFormat                           : MPEG Audio\nFormat version                   : Version 1\nFormat profile                   : Layer 3\nCodec ID                         : 55\nCodec ID/Hint                    : MP3\nDuration                         : 1h 16mn\nBit rate mode                    : Constant\nBit rate                         : 128 Kbps\nChannel(s)                       : 2 channels\nSampling rate                    : 48.0 KHz\nResolution                       : 16 bits\nStream size                      : 70.1 MiB (10%)\nAlignment                        : Split accross interleaves\nInterleave, duration             : 40 ms (1.00 video frame)\nWriting library                  : LAME3.97\n","torrent":{"xt":"urn:btih:e6a3d04c9982fed68a4ad4dbba9bf0afb651e645","amp;dn":"Ein+fliehendes+Pferd+%281985%29+DE+...+Xvid-mp3+76m36s.avi","amp;tr":["udp%3A%2F%2Ftracker.openbittorrent.com%3A80","udp%3A%2F%2Fopen.demonii.com%3A1337","udp%3A%2F%2Ftracker.coppersurfer.tk%3A6969","udp%3A%2F%2Fexodus.desync.com%3A6969"],"infoHash":"e6a3d04c9982fed68a4ad4dbba9bf0afb651e645","infoHashBuffer":{"type":"Buffer","data":[230,163,208,76,153,130,254,214,138,74,212,219,186,155,240,175,182,81,230,69]},"announce":[],"urlList":[]}}